<?xml version="1.0" encoding="UTF-8"?>
<svg xmlns="http://www.w3.org/2000/svg" width="200" height="200" viewBox="0 0 200 200" fill="none">
  <circle cx="100" cy="100" r="100" fill="#E0E0E0"/>
  <path d="M100 120C122.09 120 140 102.09 140 80C140 57.91 122.09 40 100 40C77.91 40 60 57.91 60 80C60 102.09 77.91 120 100 120Z" fill="#9E9E9E"/>
  <path d="M155 166.887C147.187 147.555 125.493 134 100 134C74.5066 134 52.813 147.555 45 166.887C56.6429 182.747 74.5388 193.387 95.3369 197.118C95.3369 197.118 95.4505 197.133 95.5 197.141C96.9949 197.381 98.5082 197.563 100.042 197.687C100.031 197.686 100.021 197.687 100.01 197.687C100.021 197.687 100.031 197.686 100.042 197.687C101.576 197.563 103.089 197.381 104.584 197.141C104.634 197.133 104.747 197.118 104.747 197.118C125.545 193.387 143.357 182.747 155 166.887Z" fill="#9E9E9E"/>
</svg> 